<?xml version="1.0" encoding="UTF-8"?>
<svg width="253px" height="56px" viewBox="0 0 253 56" version="1.1" xmlns="http://www.w3.org/2000/svg" xmlns:xlink="http://www.w3.org/1999/xlink">
    <!-- Generator: Sketch 44.1 (41455) - http://www.bohemiancoding.com/sketch -->
    <title>Page 1</title>
    <desc>Created with Sketch.</desc>
    <defs>
        <polygon id="path-1" points="0.737880932 0.571055556 8.48225381 0.571055556 8.48225381 8.19955556 0.737880932 8.19955556 0.737880932 0.571055556"></polygon>
        <polygon id="path-3" points="0 56.4293667 252.11986 56.4293667 252.11986 1.05597778 0 1.05597778"></polygon>
    </defs>
    <g id="Seitentypen-RZ" stroke="none" stroke-width="1" fill="none" fill-rule="evenodd">
        <g id="Flyout-Arbeit&amp;Recht" transform="translate(-125.000000, -148.000000)">
            <g id="Page-1" transform="translate(125.000000, 147.000000)">
                <path d="M88.5438894,16.3104444 C88.4506225,16.5437222 88.214775,16.7231667 88.1676055,16.7231667 C88.026097,16.7231667 85.7265843,15.523 82.7227453,15.523 C80.939953,15.523 79.6267114,16.1721667 79.6267114,17.7449444 C79.6267114,20.2392222 83.849453,20.0523889 87.1824064,22.2268333 C89.0145123,23.427 90.3266818,25.1845 90.3266818,27.8656111 C90.3266818,32.1163333 87.2756733,35.3083333 82.3025081,35.3083333 C78.8269742,35.3083333 73.477525,33.5508333 73.477525,32.3010556 C73.477525,32.1659444 73.6629869,31.8841111 73.7090843,31.7036111 L74.743597,29.0668333 C74.836864,28.8356667 74.9290589,28.6498889 75.1177369,28.6498889 C75.3042708,28.6498889 78.9213131,30.6839444 81.8297411,30.6839444 C83.3799021,30.6839444 84.6931436,30.0368889 84.6931436,28.3743889 C84.6931436,25.6932778 80.0941182,25.6932778 76.9970123,23.6602778 C75.5905038,22.7356111 74.2268767,21.1163889 74.2268767,18.4373889 C74.2268767,14.231 77.4654911,10.9017778 82.5362114,10.9017778 C85.3985419,10.9017778 89.859275,12.1051111 89.859275,13.1680556 C89.859275,13.3052778 89.7188386,13.5818333 89.6244996,13.7676111 L88.5438894,16.3104444 Z" id="Fill-1" fill="#1D1C1B"></path>
                <path d="M107.113339,12.2423333 C107.252703,11.7335556 107.488551,11.2733333 107.908788,11.2733333 C108.097466,11.2733333 108.613114,11.3208333 108.752479,11.3208333 L112.041479,11.7335556 C112.744733,11.8275 113.072775,11.8718333 113.072775,12.198 C113.072775,12.3785 112.933411,12.6603333 112.836928,13.0297778 L108.237903,29.7128333 C107.39314,32.7190556 106.124924,37.4310556 105.093627,39.976 C103.733216,43.3495556 100.821572,44.3185556 98.1929449,44.3185556 C95.6104153,44.3185556 91.8089831,43.0708889 91.8089831,42.1916111 C91.8089831,42.0079444 91.90225,41.8221667 91.996589,41.6395556 L93.4052415,38.6343889 C93.4985085,38.4032222 93.6861144,38.3124444 93.8286949,38.3124444 C94.2971737,38.3124444 95.7519237,39.4661667 97.816661,39.4661667 C99.8470932,39.4661667 100.778691,38.4401667 101.262178,36.9697778 C101.757458,35.4592778 100.374534,33.0863889 99.4311441,30.7029444 C98.9583771,29.5038333 92.4425551,13.0783333 92.4425551,13.0783333 C92.3953856,12.9854444 92.2549492,12.616 92.2067076,12.293 C92.2067076,11.9225 92.535822,11.8760556 93.2412203,11.7852778 L96.7360508,11.3208333 C96.8786314,11.3208333 97.3964237,11.2733333 97.4886186,11.2733333 C97.8638305,11.2733333 98.005339,11.7335556 98.1468475,12.198 L103.555258,28.9264444 C103.790034,27.1225 107.113339,12.2423333 107.113339,12.2423333" id="Fill-3" fill="#1D1C1B"></path>
                <path d="M135.583022,33.8729889 C135.583022,34.3796556 135.489755,34.5211 134.925865,34.5211 L130.277526,34.5211 C129.714708,34.5211 129.621441,34.3796556 129.621441,33.8729889 L129.621441,19.6377667 C129.621441,17.8823778 129.385594,15.7543778 126.992814,15.7543778 C125.020272,15.7543778 123.472255,17.0949333 122.861195,17.6501556 L122.861195,33.8729889 C122.861195,34.3796556 122.769,34.5211 122.204039,34.5211 L117.556772,34.5211 C116.993954,34.5211 116.899615,34.3796556 116.899615,33.8729889 L116.899615,19.9143222 C116.899615,13.3962667 116.007683,13.7678222 116.007683,12.7059333 C116.007683,12.4747667 116.196361,12.2889889 116.524403,12.1982111 L120.092132,11.0413222 C120.374077,10.9505444 120.608852,10.9019889 120.796458,10.9019889 C121.405373,10.9019889 121.780585,11.9184889 122.298378,14.0929333 C123.658789,12.8927667 125.771767,10.9019889 129.479933,10.9019889 C132.06139,10.9019889 135.583022,12.0567667 135.583022,17.6501556 L135.583022,33.8729889 Z" id="Fill-5" fill="#1D1C1B"></path>
                <path d="M153.440641,16.4491444 C153.016115,16.2158667 152.218522,15.5234222 150.248124,15.5234222 C146.727564,15.5234222 146.022166,18.1137556 146.022166,23.2437556 C146.022166,28.4666444 146.91517,30.6843667 149.964035,30.6843667 C152.078086,30.6843667 152.876751,29.6678667 153.440641,29.0672556 L153.440641,16.4491444 Z M156.256874,35.1198111 C156.069268,35.1694222 155.83342,35.3087556 155.644742,35.3087556 C155.222361,35.3087556 154.518035,33.6895333 154.285403,32.5347556 C153.531764,33.2282556 151.468098,35.3087556 148.087975,35.3087556 C142.736382,35.3087556 140.060586,31.0538111 140.060586,24.0312 C140.060586,15.2943667 143.252031,10.9022 149.072103,10.9022 C151.609607,10.9022 152.689145,11.7814778 153.440641,12.2892 L153.440641,2.81242222 C153.440641,2.11892222 153.767611,2.11892222 154.333645,1.97958889 L158.273369,1.19742222 C158.41595,1.19742222 158.837259,1.05597778 158.93267,1.05597778 C159.30681,1.05597778 159.401149,1.2407 159.401149,2.02814444 L159.401149,27.2654222 C159.401149,31.7483667 160.24484,32.3489778 160.24484,33.2747 C160.24484,33.4562556 160.057234,33.5977 159.823531,33.6895333 L156.256874,35.1198111 Z" id="Fill-7" fill="#1D1C1B"></path>
                <g id="Group-11" transform="translate(164.021186, 0.484922)">
                    <mask id="mask-2" fill="white">
                        <use xlink:href="#path-1"></use>
                    </mask>
                    <g id="Clip-10"></g>
                    <path d="M4.63365212,8.19955556 C6.74663093,8.19955556 8.48225381,6.48744444 8.48225381,4.36472222 C8.48225381,2.23777778 6.74663093,0.57 4.63365212,0.57 C2.47243178,0.57 0.737880932,2.23777778 0.737880932,4.36472222 C0.737880932,6.48744444 2.47243178,8.19955556 4.63365212,8.19955556" id="Fill-9" fill="#1D1C1B" mask="url(#mask-2)"></path>
                </g>
                <path d="M171.658892,33.8729889 L171.658892,12.3364889 C171.658892,11.8277111 171.565625,11.6862667 171.000663,11.6862667 L165.944951,11.6862667 C165.754129,11.7664889 165.710176,11.9385444 165.710176,12.2742111 L165.710176,33.8107111 C165.710176,34.3205444 165.803443,34.4619889 166.368405,34.4619889 L171.423044,34.4619889 C171.613867,34.3817667 171.658892,34.2086556 171.658892,33.8729889" id="Fill-12" fill="#1D1C1B"></path>
                <path d="M193.921927,32.3932056 C193.966953,32.53465 194.061292,32.7193722 194.061292,32.8565944 C194.061292,33.9670389 190.259859,35.30865 187.442554,35.30865 C180.918156,35.30865 177.022385,31.3777611 177.022385,23.5655944 C177.022385,15.7544833 181.011423,10.9020944 187.958203,10.9020944 C190.493563,10.9020944 194.625181,12.2890944 194.625181,13.7235944 C194.625181,13.8608167 194.530842,13.9990944 194.484745,14.1363167 L192.74805,17.1414833 C192.653711,17.2343722 192.559372,17.37265 192.418936,17.37265 C191.949385,17.37265 190.400296,15.5233167 187.958203,15.5233167 C184.766758,15.5233167 183.358105,17.9289278 183.358105,23.24365 C183.358105,28.3272056 184.581296,30.6842611 188.19405,30.6842611 C190.590046,30.6842611 191.527003,29.1125389 192.370694,29.1125389 C192.513275,29.1125389 192.606542,29.2064833 192.701953,29.3437056 L193.921927,32.3932056 Z" id="Fill-14" fill="#1D1C1B"></path>
                <path d="M211.09859,23.1035778 C211.09859,18.8074667 210.488603,15.5225778 207.251061,15.5225778 C204.010302,15.5225778 203.400315,18.8074667 203.400315,23.1035778 C203.400315,27.4039111 203.964205,30.6845778 207.251061,30.6845778 C210.5347,30.6845778 211.09859,27.4482444 211.09859,23.1035778 M207.251061,35.3089667 C200.914268,35.3089667 197.064594,30.5463 197.064594,23.1035778 C197.064594,15.6640222 200.914268,10.9013556 207.251061,10.9013556 C213.538539,10.9013556 217.436455,15.6640222 217.436455,23.1035778 C217.436455,30.5463 213.587853,35.3089667 207.251061,35.3089667" id="Fill-16" fill="#1D1C1B"></path>
                <path d="M252.119539,33.8729889 C252.119539,34.3796556 252.026272,34.5211 251.46131,34.5211 L246.815115,34.5211 C246.254441,34.5211 246.157958,34.3796556 246.157958,33.8729889 L246.157958,19.6377667 C246.157958,17.8823778 245.970352,15.7543778 244.185416,15.7543778 C242.215017,15.7543778 240.664856,17.0949333 240.057013,17.6501556 L240.057013,33.8729889 C240.057013,34.3796556 239.96053,34.5211 239.397712,34.5211 L234.750445,34.5211 C234.187628,34.5211 234.094361,34.3796556 234.094361,33.8729889 L234.094361,19.6377667 C234.094361,17.8823778 233.904611,15.7543778 232.123962,15.7543778 C230.15142,15.7543778 228.602331,17.0949333 227.992344,17.6501556 L227.992344,33.8729889 C227.992344,34.3796556 227.898005,34.5211 227.334115,34.5211 L222.686848,34.5211 C222.122958,34.5211 222.031835,34.3796556 222.031835,33.8729889 L222.031835,19.9143222 C222.031835,13.3962667 221.138831,13.7678222 221.138831,12.7059333 C221.138831,12.4747667 221.325365,12.2889889 221.655551,12.1982111 L225.221136,11.0413222 C225.504153,10.9505444 225.738928,10.9019889 225.925462,10.9019889 C226.53545,10.9019889 226.911733,11.9184889 227.428454,14.0929333 C228.834962,12.8927667 230.901844,10.9019889 234.611081,10.9019889 C236.628649,10.9019889 238.835967,12.1507111 239.397712,14.0929333 C240.807437,12.8927667 242.825005,10.9019889 246.674678,10.9019889 C251.08717,10.9019889 252.119539,14.1837111 252.119539,18.2053778 L252.119539,33.8729889 Z" id="Fill-18" fill="#1D1C1B"></path>
                <path d="M10.1398326,10.6569944 C3.82876907,10.6569944 0.000536016949,15.3943278 0.000536016949,22.8074944 C0.000536016949,30.2196056 3.82876907,34.9601056 10.1398326,34.9601056 C16.4466081,34.9601056 20.2759131,30.2196056 20.2759131,22.8074944 C20.2759131,15.3943278 16.3972945,10.6569944 10.1398326,10.6569944" id="Fill-20" fill="#1D1C1B"></path>
                <path d="M6.39082288,22.6417722 C5.71651356,22.96055 4.03127627,23.7374389 4.03127627,23.7374389 C3.38269576,24.0414389 3.10932712,24.8067167 3.41914492,25.4432167 C3.73110678,26.0807722 4.50404322,26.3509944 5.15047966,26.0438278 L5.28233983,25.9826056 C5.53855593,26.5198833 5.57607712,26.6497167 5.72187373,27.1753833 C5.90947966,27.8572722 5.79155593,29.3909944 6.76389068,29.1598278 C7.73515339,28.9286611 8.25294576,28.5264944 8.25294576,28.5264944 C8.25294576,28.5264944 7.67083136,27.4709389 7.30312373,26.2433278 C7.08335678,25.5128833 7.10908559,25.0843278 7.56362797,24.8689944 C10.7036153,23.3933278 11.7606407,24.0731056 13.9658144,24.9059389 L10.443111,17.66905 C9.71412797,19.9026056 9.60478051,21.1133278 6.39082288,22.6417722" id="Fill-22" fill="#FEFEFE"></path>
                <polygon id="Fill-24" fill="#FEFEFE" points="16.5422335 19.8296667 16.0008564 18.7213333 13.3432843 20.6899444"></polygon>
                <polygon id="Fill-26" fill="#FEFEFE" points="16.8787449 21.4923778 14.1911559 22.3632111 16.9859483 22.7147111"></polygon>
                <polygon id="Fill-28" fill="#FEFEFE" points="13.9731042 16.5764444 12.5451551 18.9778333 14.8864771 17.4124444"></polygon>
                <path d="M33.9417725,10.6569944 C27.633925,10.6569944 23.8024758,15.3996056 23.8024758,22.80855 C23.8024758,30.2196056 27.633925,34.9601056 33.9417725,34.9601056 C40.2464038,34.9601056 44.0767809,30.2196056 44.0767809,22.80855 C44.0767809,15.3996056 40.1992343,10.6569944 33.9417725,10.6569944" id="Fill-30" fill="#32B4E9"></path>
                <path d="M37.627961,20.8069 C35.6800754,20.8069 34.2649907,21.8571778 34.2649907,23.3117333 C34.2649907,24.3630667 35.0079102,25.2001222 36.1571305,25.5896222 C36.3768975,26.6641778 36.0392068,27.5360667 36.0392068,27.5360667 C36.6738508,27.1792889 37.1391136,26.5670667 37.3717449,25.8081222 C37.4564356,25.8112889 37.5400542,25.8155111 37.627961,25.8155111 C39.5747746,25.8155111 40.9920034,24.7641778 40.9920034,23.3117333 C40.9920034,21.8571778 39.5747746,20.8069 37.627961,20.8069" id="Fill-32" fill="#FEFEFE"></path>
                <path d="M36.3706797,20.0976722 C36.2527559,18.1638944 34.4034975,16.62595 31.6344339,16.62595 C28.7742475,16.62595 26.8874678,18.26945 26.8874678,20.29295 C26.8874678,21.8783944 28.0549127,23.2273944 29.9331161,23.7372278 C30.0113746,24.8793389 30.5602559,25.8303944 31.4178831,26.3117278 C31.4178831,26.3117278 30.9879975,25.2076167 31.4071627,23.9493944 C31.4843492,23.9493944 31.5583195,23.9578389 31.6344339,23.9578389 C32.2905186,23.9578389 32.8951458,23.8670611 33.4386669,23.7076722 C33.4204424,23.5778389 33.4140102,23.4437833 33.4140102,23.3118389 C33.4140102,21.7242833 34.5975356,20.4945611 36.3706797,20.0976722" id="Fill-34" fill="#FEFEFE"></path>
                <path d="M57.7401746,10.6569944 C51.4333992,10.6569944 47.603022,15.39855 47.603022,22.8074944 C47.603022,30.21855 51.4333992,34.9601056 57.7401746,34.9601056 C64.04695,34.9601056 67.8783992,30.21855 67.8783992,22.8074944 C67.8783992,15.39855 63.9987085,10.6569944 57.7401746,10.6569944" id="Fill-36" fill="#F6E600"></path>
                <path d="M60.4522059,23.39375 C59.949422,23.4549722 59.4198373,23.3758056 59.3576593,22.8796944 C59.2954814,22.3793611 59.6513966,21.9254722 60.1573966,21.8610833 C60.6644686,21.7988056 61.1232992,22.1503056 61.1886932,22.6485278 C61.2508712,23.1488611 60.9582059,23.3283056 60.4522059,23.39375 M55.4919051,17.7581389 C53.1012695,18.6078611 52.137511,20.9438056 53.3585576,24.2096944 C54.5785322,27.4776944 57.4290703,27.9548056 59.9708627,27.9548056 C61.0236,27.9548056 61.591778,27.1768611 61.8887314,26.2458611 C60.3342822,26.0854167 59.6031551,25.3444167 59.6031551,25.3444167 C60.4479178,25.6051389 61.3580746,25.5629167 62.0806254,25.4425833 C62.1503076,25.0235278 62.1792525,24.6086944 62.1835407,24.2350278 L63.3713542,23.8149167 C62.131011,20.6229167 60.2120703,16.0734722 55.4919051,17.7581389" id="Fill-38" fill="#FEFEFE"></path>
                <path d="M6.74159237,55.6334778 C6.17234237,56.2129778 5.49267288,56.4293667 4.73367288,56.4293667 C3.95537627,56.4293667 3.31644407,56.1549222 2.81687627,55.6630333 C2.09754153,54.9547556 2.1189822,54.0797 2.1189822,52.8710889 C2.1189822,51.6603667 2.09754153,50.7863667 2.81687627,50.0780889 C3.31644407,49.5862 3.93607966,49.3117556 4.73367288,49.3117556 C6.38246102,49.3117556 7.22079153,50.3736444 7.41054153,51.5527 L6.01153729,51.5527 C5.85287627,50.8940333 5.44335932,50.5309222 4.73367288,50.5309222 C4.35417288,50.5309222 4.04542712,50.6787 3.84602881,50.9045889 C3.57587627,51.1990889 3.50619407,51.5231444 3.50619407,52.8710889 C3.50619407,54.2179778 3.57587627,54.5515333 3.84602881,54.8460333 C4.04542712,55.0729778 4.35417288,55.2102 4.73367288,55.2102 C5.15391017,55.2102 5.49267288,55.0634778 5.72316017,54.8175333 C5.95257542,54.5620889 6.04262627,54.2464778 6.04262627,53.8833667 L6.04262627,53.6173667 L4.73367288,53.6173667 L4.73367288,52.4773667 L7.42018983,52.4773667 L7.42018983,53.5002 C7.42018983,54.5124778 7.24116017,55.1236444 6.74159237,55.6334778" id="Fill-40" fill="#1D1C1B"></path>
                <polygon id="Fill-42" fill="#1D1C1B" points="9.63050932 56.3705722 9.63050932 49.3701278 14.3152975 49.3701278 14.3152975 50.5882389 11.0177212 50.5882389 11.0177212 52.2317389 13.825378 52.2317389 13.825378 53.4509056 11.0177212 53.4509056 11.0177212 55.1514056 14.3152975 55.1514056 14.3152975 56.3705722"></polygon>
                <polygon id="Fill-44" fill="#1D1C1B" points="22.5362966 56.3705722 21.377428 56.3705722 20.0695466 52.1230167 18.7605932 56.3705722 17.6038686 56.3705722 15.7063686 49.3701278 17.1536144 49.3701278 18.2513771 53.7844611 19.5496102 49.3701278 20.5894831 49.3701278 21.8866441 53.7844611 22.9951271 49.3701278 24.4434449 49.3701278"></polygon>
                <polygon id="Fill-46" fill="#1D1C1B" points="26.1350072 56.3705722 26.1350072 49.3701278 30.8176513 49.3701278 30.8176513 50.5882389 27.5232911 50.5882389 27.5232911 52.2317389 30.3288038 52.2317389 30.3288038 53.4509056 27.5232911 53.4509056 27.5232911 55.1514056 30.8176513 55.1514056 30.8176513 56.3705722"></polygon>
                <path d="M35.6754657,50.5886611 L34.3665123,50.5886611 L34.3665123,52.4369389 L35.6754657,52.4369389 C36.2843809,52.4369389 36.6831775,52.0548278 36.6831775,51.5133278 C36.6831775,50.9728833 36.2843809,50.5886611 35.6754657,50.5886611 L35.6754657,50.5886611 Z M36.7550038,56.3709944 L35.3667199,53.5779944 L34.3665123,53.5779944 L34.3665123,56.3709944 L32.9793004,56.3709944 L32.9793004,49.37055 L35.7655165,49.37055 C37.2138343,49.37055 38.0714614,50.3448278 38.0714614,51.5133278 C38.0714614,52.4971056 37.4625462,53.1061611 36.7743004,53.3531611 L38.3609106,56.3709944 L36.7550038,56.3709944 Z" id="Fill-48" fill="#1D1C1B"></path>
                <polygon id="Fill-50" fill="#1D1C1B" points="44.4470614 56.3705722 42.6192436 53.1849056 41.7005106 54.2679056 41.7005106 56.3705722 40.3122267 56.3705722 40.3122267 49.3701278 41.7005106 49.3701278 41.7005106 52.4185722 44.2069258 49.3701278 45.8943072 49.3701278 43.5379767 52.1525722 46.0647606 56.3705722"></polygon>
                <path d="M49.7129992,56.4292611 C48.633461,56.4292611 47.8154992,56.2044278 47.1165331,55.50565 L48.0148975,54.6210944 C48.4640797,55.0633722 49.0729949,55.2100944 49.7333678,55.2100944 C50.5524017,55.2100944 50.9908636,54.9060944 50.9908636,54.3455944 C50.9908636,54.0985944 50.9211814,53.8938167 50.7710966,53.7555389 C50.6317322,53.6278167 50.4719992,53.5592056 50.1428847,53.5085389 L49.2831136,53.3903167 C48.6741983,53.3037611 48.2250161,53.1158722 47.90555,52.8118722 C47.5657153,52.4772611 47.3963339,52.0244278 47.3963339,51.4343722 C47.3963339,50.18565 48.3332915,49.31165 49.8727322,49.31165 C50.8514992,49.31165 51.5601136,49.5470389 52.1690288,50.1275944 L51.2910331,50.9825944 C50.8407788,50.5593167 50.3015458,50.5012611 49.8309229,50.5012611 C49.0922915,50.5012611 48.7342322,50.9044833 48.7342322,51.3858167 C48.7342322,51.56315 48.7942661,51.7499833 48.9443508,51.8872056 C49.0837153,52.0159833 49.3131305,52.1225944 49.6025797,52.1627056 L50.4419822,52.2809278 C51.0905627,52.3685389 51.5000797,52.5458722 51.8013212,52.8224278 C52.1797492,53.1749833 52.3491305,53.6869278 52.3491305,54.3065389 C52.3491305,55.6629278 51.2020542,56.4292611 49.7129992,56.4292611" id="Fill-52" fill="#1D1C1B"></path>
                <path d="M56.8355924,56.4292611 C56.0572958,56.4292611 55.4172915,56.1548167 54.9187958,55.6629278 C54.199461,54.95465 54.2198297,54.0795944 54.2198297,52.8709833 C54.2198297,51.6602611 54.199461,50.7862611 54.9187958,50.0779833 C55.4172915,49.5860944 56.0572958,49.31165 56.8355924,49.31165 C58.1638424,49.31165 59.2026432,50.0589833 59.4513551,51.5230389 L58.0437746,51.5230389 C57.9044102,50.9625389 57.5452788,50.5308167 56.8452407,50.5308167 C56.4668127,50.5308167 56.1559229,50.6680389 55.9575966,50.8939278 C55.6874441,51.1884278 55.6070415,51.5230389 55.6070415,52.8709833 C55.6070415,54.2178722 55.6874441,54.5514278 55.9575966,54.8459278 C56.1559229,55.0728722 56.4668127,55.2100944 56.8452407,55.2100944 C57.5452788,55.2100944 57.9044102,54.7773167 58.0437746,54.2178722 L59.4513551,54.2178722 C59.2026432,55.6829833 58.1541941,56.4292611 56.8355924,56.4292611" id="Fill-54" fill="#1D1C1B"></path>
                <polygon id="Fill-56" fill="#1D1C1B" points="65.2469847 56.3705722 65.2469847 53.44035 62.8402686 53.44035 62.8402686 56.3705722 61.4519847 56.3705722 61.4519847 49.3701278 62.8402686 49.3701278 62.8402686 52.2317389 65.2469847 52.2317389 65.2469847 49.3701278 66.6352686 49.3701278 66.6352686 56.3705722"></polygon>
                <path d="M71.4813979,51.4344778 L70.5830335,53.9815333 L72.3508174,53.9815333 L71.4813979,51.4344778 Z M73.1398343,56.3702556 L72.7217411,55.1320889 L70.1938852,55.1320889 L69.7639996,56.3702556 L68.3178258,56.3702556 L70.9035716,49.3698111 L71.991686,49.3698111 L74.5881521,56.3702556 L73.1398343,56.3702556 Z" id="Fill-58" fill="#1D1C1B"></path>
                <polygon id="Fill-60" fill="#1D1C1B" points="77.6565275 50.5886611 77.6565275 52.3102722 80.4641843 52.3102722 80.4641843 53.5294389 77.6565275 53.5294389 77.6565275 56.3709944 76.2682436 56.3709944 76.2682436 49.37055 80.9530318 49.37055 80.9530318 50.5886611"></polygon>
                <polygon id="Fill-62" fill="#1D1C1B" points="85.67845 50.5886611 85.67845 56.3709944 84.2901661 56.3709944 84.2901661 50.5886611 82.4323314 50.5886611 82.4323314 49.37055 87.5352127 49.37055 87.5352127 50.5886611"></polygon>
                <polygon id="Fill-64" fill="#1D1C1B" points="97.6357017 56.3705722 97.6357017 52.29085 96.2774347 54.9455722 95.3394051 54.9455722 93.9714898 52.29085 93.9714898 56.3705722 92.5821339 56.3705722 92.5821339 49.3701278 93.9511212 49.3701278 95.8089559 53.1564056 97.6571424 49.3701278 99.0239856 49.3701278 99.0239856 56.3705722"></polygon>
                <polygon id="Fill-66" fill="#1D1C1B" points="101.484196 56.3705722 101.484196 49.3701278 106.168984 49.3701278 106.168984 50.5882389 102.87248 50.5882389 102.87248 52.2317389 105.680137 52.2317389 105.680137 53.4509056 102.87248 53.4509056 102.87248 55.1514056 106.168984 55.1514056 106.168984 56.3705722"></polygon>
                <path d="M111.804023,51.0227056 C111.563888,50.73665 111.244422,50.5888722 110.765222,50.5888722 L109.715701,50.5888722 L109.715701,55.1520389 L110.765222,55.1520389 C111.244422,55.1520389 111.563888,55.0042611 111.804023,54.7192611 C112.062383,54.4047056 112.104193,53.9033167 112.104193,52.8403722 C112.104193,51.7784833 112.062383,51.3372611 111.804023,51.0227056 M112.773142,55.7019833 C112.302519,56.1653722 111.63357,56.37015 110.893867,56.37015 L108.328489,56.37015 L108.328489,49.3707611 L110.893867,49.3707611 C111.63357,49.3707611 112.302519,49.5765944 112.773142,50.0389278 C113.571807,50.8253167 113.491405,51.7890389 113.491405,52.8403722 C113.491405,53.8938167 113.571807,54.9155944 112.773142,55.7019833" id="Fill-68" fill="#1D1C1B"></path>
                <mask id="mask-4" fill="white">
                    <use xlink:href="#path-3"></use>
                </mask>
                <g id="Clip-71"></g>
                <polygon id="Fill-70" fill="#1D1C1B" mask="url(#mask-4)" points="115.712123 56.3702556 117.100407 56.3702556 117.100407 49.3698111 115.712123 49.3698111"></polygon>
                <polygon id="Fill-72" fill="#1D1C1B" mask="url(#mask-4)" points="119.557937 56.3705722 119.557937 49.3701278 124.241653 49.3701278 124.241653 50.5882389 120.946221 50.5882389 120.946221 52.2317389 123.752806 52.2317389 123.752806 53.4509056 120.946221 53.4509056 120.946221 55.1514056 124.241653 55.1514056 124.241653 56.3705722"></polygon>
                <polygon id="Fill-73" fill="#1D1C1B" mask="url(#mask-4)" points="130.605997 56.3705722 127.789764 52.0744611 127.789764 56.3705722 126.402552 56.3705722 126.402552 49.3701278 127.639679 49.3701278 130.455912 53.6567389 130.455912 49.3701278 131.845268 49.3701278 131.845268 56.3705722"></polygon>
                <path d="M139.927117,56.4292611 C138.470223,56.4292611 137.312427,55.4570944 137.312427,53.9719278 L137.312427,49.3707611 L138.699639,49.3707611 L138.699639,53.9223167 C138.699639,54.7287611 139.178838,55.2100944 139.927117,55.2100944 C140.677541,55.2100944 141.167461,54.7287611 141.167461,53.9223167 L141.167461,49.3707611 L142.54288,49.3707611 L142.54288,53.9719278 C142.54288,55.4570944 141.386156,56.4292611 139.927117,56.4292611" id="Fill-74" fill="#1D1C1B" mask="url(#mask-4)"></path>
                <polygon id="Fill-75" fill="#1D1C1B" mask="url(#mask-4)" points="149.099118 56.3705722 146.282885 52.0744611 146.282885 56.3705722 144.894601 56.3705722 144.894601 49.3701278 146.1328 49.3701278 148.947961 53.6567389 148.947961 49.3701278 150.336245 49.3701278 150.336245 56.3705722"></polygon>
                <path d="M156.273061,51.0227056 C156.031854,50.73665 155.71346,50.5888722 155.234261,50.5888722 L154.184739,50.5888722 L154.184739,55.1520389 L155.234261,55.1520389 C155.71346,55.1520389 156.031854,55.0042611 156.273061,54.7192611 C156.532494,54.4047056 156.572159,53.9033167 156.572159,52.8403722 C156.572159,51.7784833 156.532494,51.3372611 156.273061,51.0227056 M157.241108,55.7019833 C156.771557,56.1653722 156.102608,56.37015 155.362905,56.37015 L152.796456,56.37015 L152.796456,49.3707611 L155.362905,49.3707611 C156.102608,49.3707611 156.771557,49.5765944 157.241108,50.0389278 C158.039773,50.8253167 157.960443,51.7890389 157.960443,52.8403722 C157.960443,53.8938167 158.039773,54.9155944 157.241108,55.7019833" id="Fill-76" fill="#1D1C1B" mask="url(#mask-4)"></path>
                <polygon id="Fill-77" fill="#1D1C1B" mask="url(#mask-4)" points="167.431005 56.3705722 165.604259 53.1849056 164.684454 54.2679056 164.684454 56.3705722 163.297242 56.3705722 163.297242 49.3701278 164.684454 49.3701278 164.684454 52.4185722 167.191941 49.3701278 168.879322 49.3701278 166.522992 52.1525722 169.048704 56.3705722"></polygon>
                <path d="M173.916059,50.9046944 C173.715589,50.6788056 173.406843,50.5310278 173.026271,50.5310278 C172.648915,50.5310278 172.328377,50.6788056 172.128979,50.9046944 C171.859898,51.1991944 171.789144,51.52325 171.789144,52.8711944 C171.789144,54.2180833 171.859898,54.5421389 172.128979,54.8366389 C172.328377,55.0635833 172.648915,55.2103056 173.026271,55.2103056 C173.406843,55.2103056 173.715589,55.0635833 173.916059,54.8366389 C174.18514,54.5421389 174.266614,54.2180833 174.266614,52.8711944 C174.266614,51.52325 174.18514,51.1991944 173.916059,50.9046944 M174.94414,55.6631389 C174.445644,56.1550278 173.835657,56.4294722 173.026271,56.4294722 C172.21903,56.4294722 171.598322,56.1550278 171.100898,55.6631389 C170.381564,54.9548611 170.40086,54.0798056 170.40086,52.8711944 C170.40086,51.6604722 170.381564,50.7864722 171.100898,50.0781944 C171.598322,49.5863056 172.21903,49.3118611 173.026271,49.3118611 C173.835657,49.3118611 174.445644,49.5863056 174.94414,50.0781944 C175.662403,50.7864722 175.653826,51.6604722 175.653826,52.8711944 C175.653826,54.0798056 175.662403,54.9548611 174.94414,55.6631389" id="Fill-78" fill="#1D1C1B" mask="url(#mask-4)"></path>
                <polygon id="Fill-79" fill="#1D1C1B" mask="url(#mask-4)" points="182.927791 56.3705722 182.927791 52.29085 181.569524 54.9455722 180.630422 54.9455722 179.262507 52.29085 179.262507 56.3705722 177.874223 56.3705722 177.874223 49.3701278 179.242138 49.3701278 181.099973 53.1564056 182.947087 49.3701278 184.316075 49.3701278 184.316075 56.3705722"></polygon>
                <polygon id="Fill-80" fill="#1D1C1B" mask="url(#mask-4)" points="191.828674 56.3705722 191.828674 52.29085 190.470407 54.9455722 189.531305 54.9455722 188.16339 52.29085 188.16339 56.3705722 186.775106 56.3705722 186.775106 49.3701278 188.143021 49.3701278 190.000856 53.1564056 191.84797 49.3701278 193.216958 49.3701278 193.216958 56.3705722"></polygon>
                <path d="M198.182833,56.4292611 C196.725939,56.4292611 195.56707,55.4570944 195.56707,53.9719278 L195.56707,49.3707611 L196.955354,49.3707611 L196.955354,53.9223167 C196.955354,54.7287611 197.434553,55.2100944 198.182833,55.2100944 C198.932185,55.2100944 199.422104,54.7287611 199.422104,53.9223167 L199.422104,49.3707611 L200.799668,49.3707611 L200.799668,53.9719278 C200.799668,55.4570944 199.640799,56.4292611 198.182833,56.4292611" id="Fill-81" fill="#1D1C1B" mask="url(#mask-4)"></path>
                <polygon id="Fill-82" fill="#1D1C1B" mask="url(#mask-4)" points="207.353761 56.3705722 204.537528 52.0744611 204.537528 56.3705722 203.150317 56.3705722 203.150317 49.3701278 204.387444 49.3701278 207.203677 53.6567389 207.203677 49.3701278 208.593033 49.3701278 208.593033 56.3705722"></polygon>
                <polygon id="Fill-83" fill="#1D1C1B" mask="url(#mask-4)" points="211.052386 56.3702556 212.440669 56.3702556 212.440669 49.3698111 211.052386 49.3698111"></polygon>
                <polygon id="Fill-84" fill="#1D1C1B" mask="url(#mask-4)" points="219.033571 56.3705722 217.206825 53.1849056 216.288092 54.2679056 216.288092 56.3705722 214.899808 56.3705722 214.899808 49.3701278 216.288092 49.3701278 216.288092 52.4185722 218.793435 49.3701278 220.481889 49.3701278 218.125558 52.1525722 220.65127 56.3705722"></polygon>
                <path d="M224.729287,51.4344778 L223.82985,53.9815333 L225.598706,53.9815333 L224.729287,51.4344778 Z M226.385579,56.3702556 L225.967486,55.1320889 L223.441774,55.1320889 L223.010817,56.3702556 L221.564643,56.3702556 L224.149317,49.3698111 L225.238503,49.3698111 L227.834969,56.3702556 L226.385579,56.3702556 Z" id="Fill-85" fill="#1D1C1B" mask="url(#mask-4)"></path>
                <polygon id="Fill-86" fill="#1D1C1B" mask="url(#mask-4)" points="231.632113 50.5886611 231.632113 56.3709944 230.244901 56.3709944 230.244901 50.5886611 228.385994 50.5886611 228.385994 49.37055 233.488876 49.37055 233.488876 50.5886611"></polygon>
                <polygon id="Fill-87" fill="#1D1C1B" mask="url(#mask-4)" points="235.419716 56.3702556 236.808 56.3702556 236.808 49.3698111 235.419716 49.3698111"></polygon>
                <path d="M242.541881,50.9046944 C242.34141,50.6788056 242.031592,50.5310278 241.652092,50.5310278 C241.273664,50.5310278 240.953126,50.6788056 240.753728,50.9046944 C240.484647,51.1991944 240.413893,51.52325 240.413893,52.8711944 C240.413893,54.2180833 240.484647,54.5421389 240.753728,54.8366389 C240.953126,55.0635833 241.273664,55.2103056 241.652092,55.2103056 C242.031592,55.2103056 242.34141,55.0635833 242.541881,54.8366389 C242.810961,54.5421389 242.891364,54.2180833 242.891364,52.8711944 C242.891364,51.52325 242.810961,51.1991944 242.541881,50.9046944 M243.568889,55.6631389 C243.071465,56.1550278 242.461478,56.4294722 241.652092,56.4294722 C240.844851,56.4294722 240.224143,56.1550278 239.725647,55.6631389 C239.007385,54.9548611 239.026681,54.0798056 239.026681,52.8711944 C239.026681,51.6604722 239.007385,50.7864722 239.725647,50.0781944 C240.224143,49.5863056 240.844851,49.3118611 241.652092,49.3118611 C242.461478,49.3118611 243.071465,49.5863056 243.568889,50.0781944 C244.288224,50.7864722 244.279647,51.6604722 244.279647,52.8711944 C244.279647,54.0798056 244.288224,54.9548611 243.568889,55.6631389" id="Fill-88" fill="#1D1C1B" mask="url(#mask-4)"></path>
                <polygon id="Fill-89" fill="#1D1C1B" mask="url(#mask-4)" points="250.70306 56.3705722 247.886827 52.0744611 247.886827 56.3705722 246.499615 56.3705722 246.499615 49.3701278 247.736742 49.3701278 250.552975 53.6567389 250.552975 49.3701278 251.940187 49.3701278 251.940187 56.3705722"></polygon>
            </g>
        </g>
    </g>
</svg>