<?xml version="1.0" encoding="utf-8"?>
<!-- Generator: Adobe Illustrator 23.0.4, SVG Export Plug-In . SVG Version: 6.00 Build 0)  -->
<svg version="1.1" id="SWW" xmlns="http://www.w3.org/2000/svg" xmlns:xlink="http://www.w3.org/1999/xlink" x="0px" y="0px"
	 viewBox="0 0 283.1 111.8" style="enable-background:new 0 0 283.1 111.8;" xml:space="preserve">
<style type="text/css">
	.st0{fill:#1D1D1B;}
	.st1{fill:#FCC200;}
	.st2{fill:#DA0719;}
	.st3{fill:#FFFFFF;}
</style>
<g id="SWW_1_">
	<rect x="75.6" y="17.9" class="st0" width="6.7" height="88.5"/>
	<polygon class="st1" points="89,24.6 89,53.9 145.7,53.9 157.4,39.2 145.7,24.6 	"/>
	<polygon class="st1" points="12.2,24.6 0.4,39.2 12.2,53.9 68.9,53.9 68.9,24.6 	"/>
	<g>
		<path class="st0" d="M99.5,71.1c-0.9-0.5-2.2-0.8-3.3-0.8C95,70.2,94,70.8,94,72c0,3,6.5,1.6,6.5,7.4c0,3.1-2.5,5-5.8,5
			c-2,0-3.7-0.5-4.4-0.7l0.2-3.2c1.2,0.4,2.2,1,3.6,1c1.2,0,2.4-0.6,2.4-2c0-3.2-6.5-1.6-6.5-7.5c0-0.5,0.2-4.7,5.7-4.7
			c1.5,0,2.5,0.3,3.9,0.6L99.5,71.1z"/>
		<path class="st0" d="M111.6,83.8c-1.1,0.3-2.2,0.5-3.4,0.5c-4.7,0-5.8-4-5.8-6.2c0-3.8,2.2-6.5,6.1-6.5c1.2,0,1.9,0.3,3,0.6
			l-0.2,2.8c-0.7-0.3-1.4-0.5-2.2-0.5c-2.8,0-2.8,3.1-2.8,3.6c0,2.6,1.6,3.4,3,3.4c0.8,0,1.5-0.3,2.2-0.5L111.6,83.8z"/>
		<path class="st0" d="M113.8,66.5h3.7v7.2h0c0.4-1.4,1.8-2,3.1-2c2.7,0,3.6,2,3.6,4.4v8h-3.7v-7.6c0-1.5-0.7-1.9-1.4-1.9
			c-1.2,0-1.6,1-1.6,2.6v6.9h-3.7V66.5z"/>
		<path class="st0" d="M129.4,71.9l1.8,8.7h0l1.7-8.7h4.2l1.7,8.7h0l1.7-8.7h3.5l-3.3,12.3h-4l-2-9h0l-1.9,9H129l-3.3-12.3H129.4z"
			/>
		<path class="st0" d="M156,79h-7.2c0,1.5,0.9,2.8,3,2.8c1.3,0,2.5-0.5,3.5-1l0.1,2.8c-1.2,0.4-2.6,0.7-3.9,0.7
			c-4.3,0-6.2-2.6-6.2-6.4c0-3.3,1.9-6.3,5.4-6.3c1.1,0,5.3,0,5.3,6.4V79z M152.6,77c0-1.6-0.4-3-1.9-3c-1.9,0-1.9,2.4-1.9,3H152.6z
			"/>
		<path class="st0" d="M158.4,66.5h3.7v3.3h-3.7V66.5z M158.4,71.9h3.7v12.3h-3.7V71.9z"/>
		<path class="st0" d="M164.7,71.9h8.5v3l-4.6,6.5h4.7v2.8h-8.8v-3.1l4.7-6.4h-4.5V71.9z"/>
		<path class="st0" d="M185.7,79h-7.2c0,1.5,0.9,2.8,3,2.8c1.3,0,2.5-0.5,3.5-1l0.1,2.8c-1.2,0.4-2.6,0.7-3.9,0.7
			c-4.3,0-6.2-2.6-6.2-6.4c0-3.3,1.9-6.3,5.4-6.3c1.1,0,5.3,0,5.3,6.4V79z M182.3,77c0-1.6-0.4-3-1.9-3c-1.9,0-1.9,2.4-1.9,3H182.3z
			"/>
		<path class="st0" d="M188.1,74.5c0-1.2,0-1.9-0.1-2.6h3.4c0,0.7,0.1,1.5,0.1,2.2h0c0.8-1.3,1.3-2.4,3.4-2.4h0.5v3.4
			c-0.4-0.1-0.7-0.1-1.3-0.1c-2.2,0-2.4,1.9-2.4,3.7v5.5h-3.7V74.5z"/>
	</g>
	<g>
		<path class="st0" d="M99,93.6L99,93.6l-2.1,12.8h-4.5L89.1,90h3.7l2,11.7h0l2-11.7h4.5l2,11.7h0l2.1-11.7h3.4l-3.2,16.5h-4.5
			L99,93.6z"/>
		<path class="st0" d="M111,94.7c1-0.3,2.6-0.8,4-0.8c4.3,0,5.3,1.8,5.3,4.5v4.5c0,1.8,0,2.6,0.1,3.5h-3.4l-0.1-1.7h0
			c-0.2,0.8-1.6,1.9-3.4,1.9c-2.3,0-3.8-1.5-3.8-3.7c0-4.1,4.8-4.1,6.1-4.1h1.1c0-2.4-1.7-2.4-2.3-2.4c-0.9,0-2,0.2-3.4,1.1
			L111,94.7z M116.9,100.5c-1.5,0-3.8,0.1-3.8,2.1c0,1.6,1.3,1.6,1.6,1.6c0.3,0,2.2,0,2.2-3V100.5z"/>
		<path class="st0" d="M129.8,98.8c0-1.5-0.7-1.9-1.4-1.9c-1.2,0-1.6,1-1.6,2.6v6.9H123v-9.7c0-1.2,0-1.9-0.1-2.6h3.4
			c0,0.5,0.1,1.2,0.1,2.1h0c0.6-1.3,1.5-2.2,3.5-2.2c2.7,0,3.6,2,3.6,4.4v8h-3.7V98.8z"/>
		<path class="st0" d="M147.2,103.7c0,1.6,0,2.2,0.1,2.8h-3.5c0-0.5-0.1-1.1-0.1-2h0c-0.4,0.8-1.2,2.1-3.3,2.1
			c-2.8,0-4.3-2.7-4.3-6.6c0-3.3,1.2-6,4.3-6c1.7,0,2.7,0.9,3.2,2h0v-7.2h3.7V103.7z M141.6,103.9c1.5,0,1.9-2.2,1.9-3.6
			c0-2-0.4-3.8-1.9-3.8c-1.7,0-1.8,1.8-1.8,3.8C139.8,101.6,139.9,103.9,141.6,103.9z"/>
		<path class="st0" d="M160.3,101.3h-7.2c0,1.5,0.9,2.8,3,2.8c1.3,0,2.5-0.5,3.5-1l0.1,2.8c-1.2,0.4-2.6,0.7-3.9,0.7
			c-4.3,0-6.2-2.6-6.2-6.4c0-3.3,1.9-6.3,5.4-6.3c1.1,0,5.3,0,5.3,6.4V101.3z M156.9,99.2c0-1.6-0.4-3-1.9-3c-1.9,0-1.9,2.4-1.9,3
			H156.9z"/>
		<path class="st0" d="M162.7,96.7c0-1.2,0-1.9-0.1-2.6h3.4c0,0.7,0.1,1.5,0.1,2.2h0c0.8-1.3,1.3-2.4,3.4-2.4h0.5v3.4
			c-0.4-0.1-0.7-0.1-1.2-0.1c-2.2,0-2.4,1.9-2.4,3.7v5.5h-3.7V96.7z"/>
		<path class="st0" d="M175.1,94.1l1.8,8.7h0l1.7-8.7h4.2l1.7,8.7h0l1.7-8.7h3.5l-3.3,12.3h-4l-2-9h0l-1.9,9h-4.1l-3.3-12.3H175.1z"
			/>
		<path class="st0" d="M201.7,101.3h-7.2c0,1.5,0.9,2.8,3,2.8c1.3,0,2.5-0.5,3.5-1l0.1,2.8c-1.2,0.4-2.6,0.7-3.9,0.7
			c-4.3,0-6.2-2.6-6.2-6.4c0-3.3,1.9-6.3,5.4-6.3c1.1,0,5.3,0,5.3,6.4V101.3z M198.3,99.2c0-1.6-0.4-3-1.9-3c-1.9,0-1.9,2.4-1.9,3
			H198.3z"/>
		<path class="st0" d="M214.9,104.9c0,1.8,0,6.7-6.2,6.7c-1.7,0-3.3-0.4-4.4-0.7l0.1-3c0.6,0.3,2.2,1.1,3.9,1.1
			c2.9,0,3.1-2.2,3.1-4.7h0c-0.2,0.7-1.2,2.2-3.2,2.2c-2.1,0-4.3-1.5-4.3-6.1c0-3.9,1.6-6.3,4.4-6.3c2.1,0,3,1.4,3.3,2.1h0l0.1-2
			h3.5c0,0.6-0.1,1.2-0.1,2.8V104.9z M209.3,103.8c1.5,0,1.9-1.8,1.9-3.5c0-1.4-0.3-3.6-1.8-3.6c-1.7,0-1.8,2.4-1.8,3.6
			C207.5,101.2,207.7,103.8,209.3,103.8z"/>
		<path class="st0" d="M228.1,101.3h-7.2c0,1.5,0.9,2.8,3,2.8c1.3,0,2.5-0.5,3.5-1l0.1,2.8c-1.2,0.4-2.6,0.7-3.9,0.7
			c-4.3,0-6.2-2.6-6.2-6.4c0-3.3,1.9-6.3,5.4-6.3c1.1,0,5.3,0,5.3,6.4V101.3z M224.7,99.2c0-1.6-0.4-3-1.9-3c-1.9,0-1.9,2.4-1.9,3
			H224.7z"/>
	</g>
	<rect x="29" y="66.5" class="st2" width="39.9" height="39.9"/>
	<polygon class="st3" points="61.3,83 52.6,83 52.6,74.3 45,74.3 45,83 36.3,83 36.3,90.6 45,90.6 45,99.3 52.6,99.3 52.6,90.6 
		61.3,90.6 	"/>
</g>
</svg>
